<svg width="33" height="32" viewBox="0 0 33 32" fill="none" xmlns="http://www.w3.org/2000/svg">
<path d="M29.6667 11.3334C29.6667 6.54695 25.7865 2.66675 21 2.66675C18.2228 2.66675 15.7508 3.97648 14.1647 6.00969C20.9294 6.27123 26.3333 11.8379 26.3333 18.6667C26.3333 18.8138 26.3308 18.9603 26.3259 19.1062L26.7689 19.2247C28.0573 19.5695 29.2361 18.3907 28.8913 17.1023L28.7215 16.4676C28.5843 15.9548 28.6668 15.4132 28.8873 14.9304C29.3878 13.8347 29.6667 12.6166 29.6667 11.3334Z" fill="currentColor"/>
<path fill-rule="evenodd" clip-rule="evenodd" d="M24.3333 18.6667C24.3333 24.5578 19.5577 29.3334 13.6667 29.3334C12.0193 29.3334 10.4592 28.96 9.06634 28.2931C8.58761 28.064 8.04524 27.9835 7.53251 28.1207L5.8978 28.5581C4.60935 28.9028 3.43061 27.7241 3.77535 26.4356L4.21274 24.8009C4.34993 24.2882 4.26946 23.7458 4.04027 23.2671C3.37343 21.8742 3 20.3141 3 18.6667C3 12.7757 7.77563 8.00008 13.6667 8.00008C19.5577 8.00008 24.3333 12.7757 24.3333 18.6667ZM9 20.0001C9.73638 20.0001 10.3333 19.4031 10.3333 18.6667C10.3333 17.9304 9.73638 17.3334 9 17.3334C8.26362 17.3334 7.66667 17.9304 7.66667 18.6667C7.66667 19.4031 8.26362 20.0001 9 20.0001ZM13.6667 20.0001C14.403 20.0001 15 19.4031 15 18.6667C15 17.9304 14.403 17.3334 13.6667 17.3334C12.9303 17.3334 12.3333 17.9304 12.3333 18.6667C12.3333 19.4031 12.9303 20.0001 13.6667 20.0001ZM18.3333 20.0001C19.0697 20.0001 19.6667 19.4031 19.6667 18.6667C19.6667 17.9304 19.0697 17.3334 18.3333 17.3334C17.597 17.3334 17 17.9304 17 18.6667C17 19.4031 17.597 20.0001 18.3333 20.0001Z" fill="currentColor"/>
</svg>
